<mxfile host="app.diagrams.net" agent="Mozilla/5.0 (Macintosh; Intel Mac OS X 10_15_7) AppleWebKit/537.36 (KHTML, like Gecko) Chrome/132.0.0.0 Safari/537.36" version="26.0.14">
  <diagram name="Page-1" id="IHoAvyuTAnfHuhGpk5dw">
    <mxGraphModel dx="1674" dy="819" grid="1" gridSize="10" guides="1" tooltips="1" connect="1" arrows="1" fold="1" page="1" pageScale="1" pageWidth="827" pageHeight="1169" math="0" shadow="0">
      <root>
        <mxCell id="0" />
        <mxCell id="1" parent="0" />
        <mxCell id="_IlJk9jZzOiAxbBTLv29-1" value="AWS Cloud" style="points=[[0,0],[0.25,0],[0.5,0],[0.75,0],[1,0],[1,0.25],[1,0.5],[1,0.75],[1,1],[0.75,1],[0.5,1],[0.25,1],[0,1],[0,0.75],[0,0.5],[0,0.25]];outlineConnect=0;gradientColor=none;html=1;whiteSpace=wrap;fontSize=12;fontStyle=0;container=1;pointerEvents=0;collapsible=0;recursiveResize=0;shape=mxgraph.aws4.group;grIcon=mxgraph.aws4.group_aws_cloud_alt;strokeColor=#232F3E;fillColor=none;verticalAlign=top;align=left;spacingLeft=30;fontColor=#232F3E;dashed=0;" parent="1" vertex="1">
          <mxGeometry x="10" y="180" width="1090" height="895" as="geometry" />
        </mxCell>
        <mxCell id="_IlJk9jZzOiAxbBTLv29-23" value="Amazon ECR" style="sketch=0;points=[[0,0,0],[0.25,0,0],[0.5,0,0],[0.75,0,0],[1,0,0],[0,1,0],[0.25,1,0],[0.5,1,0],[0.75,1,0],[1,1,0],[0,0.25,0],[0,0.5,0],[0,0.75,0],[1,0.25,0],[1,0.5,0],[1,0.75,0]];outlineConnect=0;fontColor=#232F3E;fillColor=#ED7100;strokeColor=#ffffff;dashed=0;verticalLabelPosition=bottom;verticalAlign=top;align=center;html=1;fontSize=12;fontStyle=0;aspect=fixed;shape=mxgraph.aws4.resourceIcon;resIcon=mxgraph.aws4.ecr;fontFamily=Helvetica;" parent="_IlJk9jZzOiAxbBTLv29-1" vertex="1">
          <mxGeometry x="500" y="570" width="78" height="78" as="geometry" />
        </mxCell>
        <mxCell id="_IlJk9jZzOiAxbBTLv29-32" value="Cloudwatch" style="sketch=0;points=[[0,0,0],[0.25,0,0],[0.5,0,0],[0.75,0,0],[1,0,0],[0,1,0],[0.25,1,0],[0.5,1,0],[0.75,1,0],[1,1,0],[0,0.25,0],[0,0.5,0],[0,0.75,0],[1,0.25,0],[1,0.5,0],[1,0.75,0]];points=[[0,0,0],[0.25,0,0],[0.5,0,0],[0.75,0,0],[1,0,0],[0,1,0],[0.25,1,0],[0.5,1,0],[0.75,1,0],[1,1,0],[0,0.25,0],[0,0.5,0],[0,0.75,0],[1,0.25,0],[1,0.5,0],[1,0.75,0]];outlineConnect=0;fontColor=#232F3E;fillColor=#E7157B;strokeColor=#ffffff;dashed=0;verticalLabelPosition=bottom;verticalAlign=top;align=center;html=1;fontSize=12;fontStyle=0;aspect=fixed;shape=mxgraph.aws4.resourceIcon;resIcon=mxgraph.aws4.cloudwatch_2;fontFamily=Helvetica;" parent="_IlJk9jZzOiAxbBTLv29-1" vertex="1">
          <mxGeometry x="760" y="580" width="68" height="68" as="geometry" />
        </mxCell>
        <mxCell id="_IlJk9jZzOiAxbBTLv29-39" value="" style="sketch=0;outlineConnect=0;fontColor=#232F3E;gradientColor=none;fillColor=#232F3D;strokeColor=none;dashed=0;verticalLabelPosition=bottom;verticalAlign=top;align=center;html=1;fontSize=12;fontStyle=0;aspect=fixed;pointerEvents=1;shape=mxgraph.aws4.user;fontFamily=Helvetica;" parent="_IlJk9jZzOiAxbBTLv29-1" vertex="1">
          <mxGeometry x="40" y="130" width="58" height="58" as="geometry" />
        </mxCell>
        <mxCell id="_IlJk9jZzOiAxbBTLv29-2" value="VPC" style="points=[[0,0],[0.25,0],[0.5,0],[0.75,0],[1,0],[1,0.25],[1,0.5],[1,0.75],[1,1],[0.75,1],[0.5,1],[0.25,1],[0,1],[0,0.75],[0,0.5],[0,0.25]];outlineConnect=0;gradientColor=none;html=1;whiteSpace=wrap;fontSize=12;fontStyle=0;container=1;pointerEvents=0;collapsible=0;recursiveResize=0;shape=mxgraph.aws4.group;grIcon=mxgraph.aws4.group_region;strokeColor=#00A4A6;fillColor=none;verticalAlign=top;align=left;spacingLeft=30;fontColor=#147EBA;dashed=1;" parent="_IlJk9jZzOiAxbBTLv29-1" vertex="1">
          <mxGeometry x="130" y="30" width="940" height="520" as="geometry" />
        </mxCell>
        <mxCell id="_IlJk9jZzOiAxbBTLv29-10" value="Public subnetB" style="points=[[0,0],[0.25,0],[0.5,0],[0.75,0],[1,0],[1,0.25],[1,0.5],[1,0.75],[1,1],[0.75,1],[0.5,1],[0.25,1],[0,1],[0,0.75],[0,0.5],[0,0.25]];outlineConnect=0;gradientColor=none;html=1;whiteSpace=wrap;fontSize=12;fontStyle=0;container=1;pointerEvents=0;collapsible=0;recursiveResize=0;shape=mxgraph.aws4.group;grIcon=mxgraph.aws4.group_security_group;grStroke=0;strokeColor=#7AA116;fillColor=#F2F6E8;verticalAlign=top;align=left;spacingLeft=30;fontColor=#248814;dashed=0;fontFamily=Helvetica;" parent="_IlJk9jZzOiAxbBTLv29-2" vertex="1">
          <mxGeometry x="170" y="270" width="330" height="195" as="geometry" />
        </mxCell>
        <mxCell id="_IlJk9jZzOiAxbBTLv29-25" value="ELB" style="sketch=0;points=[[0,0,0],[0.25,0,0],[0.5,0,0],[0.75,0,0],[1,0,0],[0,1,0],[0.25,1,0],[0.5,1,0],[0.75,1,0],[1,1,0],[0,0.25,0],[0,0.5,0],[0,0.75,0],[1,0.25,0],[1,0.5,0],[1,0.75,0]];outlineConnect=0;fontColor=#232F3E;fillColor=#8C4FFF;strokeColor=#ffffff;dashed=0;verticalLabelPosition=bottom;verticalAlign=top;align=center;html=1;fontSize=12;fontStyle=0;aspect=fixed;shape=mxgraph.aws4.resourceIcon;resIcon=mxgraph.aws4.elastic_load_balancing;fontFamily=Helvetica;" parent="_IlJk9jZzOiAxbBTLv29-10" vertex="1">
          <mxGeometry x="170" y="17" width="58" height="58" as="geometry" />
        </mxCell>
        <mxCell id="_IlJk9jZzOiAxbBTLv29-35" value="NAT Gateway" style="sketch=0;outlineConnect=0;fontColor=#232F3E;gradientColor=none;fillColor=#8C4FFF;strokeColor=none;dashed=0;verticalLabelPosition=bottom;verticalAlign=top;align=center;html=1;fontSize=12;fontStyle=0;aspect=fixed;pointerEvents=1;shape=mxgraph.aws4.gateway;fontFamily=Helvetica;" parent="_IlJk9jZzOiAxbBTLv29-10" vertex="1">
          <mxGeometry x="172" y="110" width="56" height="57.47" as="geometry" />
        </mxCell>
        <mxCell id="_IlJk9jZzOiAxbBTLv29-12" value="Private subnetB" style="points=[[0,0],[0.25,0],[0.5,0],[0.75,0],[1,0],[1,0.25],[1,0.5],[1,0.75],[1,1],[0.75,1],[0.5,1],[0.25,1],[0,1],[0,0.75],[0,0.5],[0,0.25]];outlineConnect=0;gradientColor=none;html=1;whiteSpace=wrap;fontSize=12;fontStyle=0;container=1;pointerEvents=0;collapsible=0;recursiveResize=0;shape=mxgraph.aws4.group;grIcon=mxgraph.aws4.group_security_group;grStroke=0;strokeColor=#00A4A6;fillColor=#E6F6F7;verticalAlign=top;align=left;spacingLeft=30;fontColor=#147EBA;dashed=0;fontFamily=Helvetica;" parent="_IlJk9jZzOiAxbBTLv29-2" vertex="1">
          <mxGeometry x="560" y="260" width="310" height="170" as="geometry" />
        </mxCell>
        <mxCell id="_IlJk9jZzOiAxbBTLv29-22" value="ECS" style="sketch=0;points=[[0,0,0],[0.25,0,0],[0.5,0,0],[0.75,0,0],[1,0,0],[0,1,0],[0.25,1,0],[0.5,1,0],[0.75,1,0],[1,1,0],[0,0.25,0],[0,0.5,0],[0,0.75,0],[1,0.25,0],[1,0.5,0],[1,0.75,0]];outlineConnect=0;fontColor=#232F3E;fillColor=#ED7100;strokeColor=#ffffff;dashed=0;verticalLabelPosition=bottom;verticalAlign=top;align=center;html=1;fontSize=12;fontStyle=0;aspect=fixed;shape=mxgraph.aws4.resourceIcon;resIcon=mxgraph.aws4.fargate;fontFamily=Helvetica;" parent="_IlJk9jZzOiAxbBTLv29-12" vertex="1">
          <mxGeometry x="170" y="90" width="38" height="38" as="geometry" />
        </mxCell>
        <mxCell id="_IlJk9jZzOiAxbBTLv29-21" value="ECS" style="sketch=0;points=[[0,0,0],[0.25,0,0],[0.5,0,0],[0.75,0,0],[1,0,0],[0,1,0],[0.25,1,0],[0.5,1,0],[0.75,1,0],[1,1,0],[0,0.25,0],[0,0.5,0],[0,0.75,0],[1,0.25,0],[1,0.5,0],[1,0.75,0]];outlineConnect=0;fontColor=#232F3E;fillColor=#ED7100;strokeColor=#ffffff;dashed=0;verticalLabelPosition=bottom;verticalAlign=top;align=center;html=1;fontSize=12;fontStyle=0;aspect=fixed;shape=mxgraph.aws4.resourceIcon;resIcon=mxgraph.aws4.fargate;fontFamily=Helvetica;" parent="_IlJk9jZzOiAxbBTLv29-12" vertex="1">
          <mxGeometry x="170" y="32" width="38" height="38" as="geometry" />
        </mxCell>
        <mxCell id="_IlJk9jZzOiAxbBTLv29-8" value="Public subnetA" style="points=[[0,0],[0.25,0],[0.5,0],[0.75,0],[1,0],[1,0.25],[1,0.5],[1,0.75],[1,1],[0.75,1],[0.5,1],[0.25,1],[0,1],[0,0.75],[0,0.5],[0,0.25]];outlineConnect=0;gradientColor=none;html=1;whiteSpace=wrap;fontSize=12;fontStyle=0;container=1;pointerEvents=0;collapsible=0;recursiveResize=0;shape=mxgraph.aws4.group;grIcon=mxgraph.aws4.group_security_group;grStroke=0;strokeColor=#7AA116;fillColor=#F2F6E8;verticalAlign=top;align=left;spacingLeft=30;fontColor=#248814;dashed=0;fontFamily=Helvetica;" parent="_IlJk9jZzOiAxbBTLv29-2" vertex="1">
          <mxGeometry x="150" y="30" width="310" height="210" as="geometry" />
        </mxCell>
        <mxCell id="_IlJk9jZzOiAxbBTLv29-24" value="ELB" style="sketch=0;points=[[0,0,0],[0.25,0,0],[0.5,0,0],[0.75,0,0],[1,0,0],[0,1,0],[0.25,1,0],[0.5,1,0],[0.75,1,0],[1,1,0],[0,0.25,0],[0,0.5,0],[0,0.75,0],[1,0.25,0],[1,0.5,0],[1,0.75,0]];outlineConnect=0;fontColor=#232F3E;fillColor=#8C4FFF;strokeColor=#ffffff;dashed=0;verticalLabelPosition=bottom;verticalAlign=top;align=center;html=1;fontSize=12;fontStyle=0;aspect=fixed;shape=mxgraph.aws4.resourceIcon;resIcon=mxgraph.aws4.elastic_load_balancing;fontFamily=Helvetica;" parent="_IlJk9jZzOiAxbBTLv29-8" vertex="1">
          <mxGeometry x="180" y="86" width="50" height="50" as="geometry" />
        </mxCell>
        <mxCell id="_IlJk9jZzOiAxbBTLv29-30" value="NAT Gateway" style="sketch=0;outlineConnect=0;fontColor=#232F3E;gradientColor=none;fillColor=#8C4FFF;strokeColor=none;dashed=0;verticalLabelPosition=bottom;verticalAlign=top;align=center;html=1;fontSize=12;fontStyle=0;aspect=fixed;pointerEvents=1;shape=mxgraph.aws4.gateway;fontFamily=Helvetica;" parent="_IlJk9jZzOiAxbBTLv29-8" vertex="1">
          <mxGeometry x="137" y="10" width="36" height="36.95" as="geometry" />
        </mxCell>
        <mxCell id="rBBs6G4yIKukUtZXNJE--9" style="edgeStyle=orthogonalEdgeStyle;rounded=0;orthogonalLoop=1;jettySize=auto;html=1;" edge="1" parent="_IlJk9jZzOiAxbBTLv29-8" source="rBBs6G4yIKukUtZXNJE--7" target="_IlJk9jZzOiAxbBTLv29-24">
          <mxGeometry relative="1" as="geometry" />
        </mxCell>
        <mxCell id="rBBs6G4yIKukUtZXNJE--7" value="" style="sketch=0;points=[[0,0,0],[0.25,0,0],[0.5,0,0],[0.75,0,0],[1,0,0],[0,1,0],[0.25,1,0],[0.5,1,0],[0.75,1,0],[1,1,0],[0,0.25,0],[0,0.5,0],[0,0.75,0],[1,0.25,0],[1,0.5,0],[1,0.75,0]];outlineConnect=0;fontColor=#232F3E;fillColor=#DD344C;strokeColor=#ffffff;dashed=0;verticalLabelPosition=bottom;verticalAlign=top;align=center;html=1;fontSize=12;fontStyle=0;aspect=fixed;shape=mxgraph.aws4.resourceIcon;resIcon=mxgraph.aws4.waf;" vertex="1" parent="_IlJk9jZzOiAxbBTLv29-8">
          <mxGeometry x="30" y="80" width="80" height="80" as="geometry" />
        </mxCell>
        <mxCell id="_IlJk9jZzOiAxbBTLv29-11" value="Private subnetA" style="points=[[0,0],[0.25,0],[0.5,0],[0.75,0],[1,0],[1,0.25],[1,0.5],[1,0.75],[1,1],[0.75,1],[0.5,1],[0.25,1],[0,1],[0,0.75],[0,0.5],[0,0.25]];outlineConnect=0;gradientColor=none;html=1;whiteSpace=wrap;fontSize=12;fontStyle=0;container=1;pointerEvents=0;collapsible=0;recursiveResize=0;shape=mxgraph.aws4.group;grIcon=mxgraph.aws4.group_security_group;grStroke=0;strokeColor=#00A4A6;fillColor=#E6F6F7;verticalAlign=top;align=left;spacingLeft=30;fontColor=#147EBA;dashed=0;fontFamily=Helvetica;" parent="_IlJk9jZzOiAxbBTLv29-2" vertex="1">
          <mxGeometry x="553" y="40" width="310" height="170" as="geometry" />
        </mxCell>
        <mxCell id="_IlJk9jZzOiAxbBTLv29-13" value="Task A" style="sketch=0;points=[[0,0,0],[0.25,0,0],[0.5,0,0],[0.75,0,0],[1,0,0],[0,1,0],[0.25,1,0],[0.5,1,0],[0.75,1,0],[1,1,0],[0,0.25,0],[0,0.5,0],[0,0.75,0],[1,0.25,0],[1,0.5,0],[1,0.75,0]];outlineConnect=0;fontColor=#232F3E;fillColor=#ED7100;strokeColor=#ffffff;dashed=0;verticalLabelPosition=bottom;verticalAlign=top;align=center;html=1;fontSize=12;fontStyle=0;aspect=fixed;shape=mxgraph.aws4.resourceIcon;resIcon=mxgraph.aws4.fargate;fontFamily=Helvetica;" parent="_IlJk9jZzOiAxbBTLv29-11" vertex="1">
          <mxGeometry x="174" y="20" width="38" height="38" as="geometry" />
        </mxCell>
        <mxCell id="_IlJk9jZzOiAxbBTLv29-20" value="Task B" style="sketch=0;points=[[0,0,0],[0.25,0,0],[0.5,0,0],[0.75,0,0],[1,0,0],[0,1,0],[0.25,1,0],[0.5,1,0],[0.75,1,0],[1,1,0],[0,0.25,0],[0,0.5,0],[0,0.75,0],[1,0.25,0],[1,0.5,0],[1,0.75,0]];outlineConnect=0;fontColor=#232F3E;fillColor=#ED7100;strokeColor=#ffffff;dashed=0;verticalLabelPosition=bottom;verticalAlign=top;align=center;html=1;fontSize=12;fontStyle=0;aspect=fixed;shape=mxgraph.aws4.resourceIcon;resIcon=mxgraph.aws4.fargate;fontFamily=Helvetica;" parent="_IlJk9jZzOiAxbBTLv29-11" vertex="1">
          <mxGeometry x="174" y="88" width="38" height="38" as="geometry" />
        </mxCell>
        <mxCell id="rBBs6G4yIKukUtZXNJE--8" style="edgeStyle=orthogonalEdgeStyle;rounded=0;orthogonalLoop=1;jettySize=auto;html=1;" edge="1" parent="_IlJk9jZzOiAxbBTLv29-2" source="_IlJk9jZzOiAxbBTLv29-26" target="rBBs6G4yIKukUtZXNJE--7">
          <mxGeometry relative="1" as="geometry" />
        </mxCell>
        <mxCell id="_IlJk9jZzOiAxbBTLv29-26" value="Internet Gateway" style="sketch=0;outlineConnect=0;fontColor=#232F3E;gradientColor=none;fillColor=#8C4FFF;strokeColor=none;dashed=0;verticalLabelPosition=bottom;verticalAlign=top;align=center;html=1;fontSize=12;fontStyle=0;aspect=fixed;pointerEvents=1;shape=mxgraph.aws4.internet_gateway;fontFamily=Helvetica;" parent="_IlJk9jZzOiAxbBTLv29-2" vertex="1">
          <mxGeometry x="-20" y="190" width="58" height="58" as="geometry" />
        </mxCell>
        <mxCell id="_IlJk9jZzOiAxbBTLv29-28" style="edgeStyle=orthogonalEdgeStyle;rounded=0;orthogonalLoop=1;jettySize=auto;html=1;entryX=0;entryY=0.25;entryDx=0;entryDy=0;entryPerimeter=0;fontFamily=Helvetica;fontSize=12;fontColor=#147EBA;fontStyle=0;" parent="_IlJk9jZzOiAxbBTLv29-2" source="_IlJk9jZzOiAxbBTLv29-24" target="_IlJk9jZzOiAxbBTLv29-20" edge="1">
          <mxGeometry relative="1" as="geometry">
            <Array as="points">
              <mxPoint x="529" y="135" />
              <mxPoint x="529" y="130" />
              <mxPoint x="727" y="130" />
            </Array>
          </mxGeometry>
        </mxCell>
        <mxCell id="_IlJk9jZzOiAxbBTLv29-37" style="edgeStyle=orthogonalEdgeStyle;rounded=0;orthogonalLoop=1;jettySize=auto;html=1;fontFamily=Helvetica;fontSize=12;fontColor=#147EBA;fontStyle=0;" parent="_IlJk9jZzOiAxbBTLv29-2" source="_IlJk9jZzOiAxbBTLv29-22" target="_IlJk9jZzOiAxbBTLv29-35" edge="1">
          <mxGeometry relative="1" as="geometry" />
        </mxCell>
        <mxCell id="rBBs6G4yIKukUtZXNJE--3" value="Security group" style="fillColor=none;strokeColor=#DD3522;verticalAlign=top;fontStyle=1;fontColor=#DD3522;whiteSpace=wrap;html=1;" vertex="1" parent="_IlJk9jZzOiAxbBTLv29-2">
          <mxGeometry x="690" y="30" width="120" height="460" as="geometry" />
        </mxCell>
        <mxCell id="rBBs6G4yIKukUtZXNJE--2" value="Availability Zone- eu-west-1b" style="fillColor=none;strokeColor=#147EBA;dashed=1;verticalAlign=top;fontStyle=0;fontColor=#147EBA;whiteSpace=wrap;html=1;" vertex="1" parent="_IlJk9jZzOiAxbBTLv29-2">
          <mxGeometry x="530" width="410" height="480" as="geometry" />
        </mxCell>
        <mxCell id="rBBs6G4yIKukUtZXNJE--10" value="Availability Zone- eu-west-1a" style="fillColor=none;strokeColor=#147EBA;dashed=1;verticalAlign=top;fontStyle=0;fontColor=#147EBA;whiteSpace=wrap;html=1;" vertex="1" parent="_IlJk9jZzOiAxbBTLv29-2">
          <mxGeometry x="100" y="10" width="410" height="480" as="geometry" />
        </mxCell>
        <mxCell id="rBBs6G4yIKukUtZXNJE--12" value="Security group" style="fillColor=none;strokeColor=#DD3522;verticalAlign=top;fontStyle=0;fontColor=#DD3522;whiteSpace=wrap;html=1;" vertex="1" parent="_IlJk9jZzOiAxbBTLv29-2">
          <mxGeometry x="240" width="190" height="500" as="geometry" />
        </mxCell>
        <mxCell id="_IlJk9jZzOiAxbBTLv29-38" style="edgeStyle=orthogonalEdgeStyle;rounded=0;orthogonalLoop=1;jettySize=auto;html=1;fontFamily=Helvetica;fontSize=12;fontColor=#147EBA;fontStyle=0;" parent="_IlJk9jZzOiAxbBTLv29-1" source="_IlJk9jZzOiAxbBTLv29-35" target="_IlJk9jZzOiAxbBTLv29-23" edge="1">
          <mxGeometry relative="1" as="geometry" />
        </mxCell>
        <mxCell id="_IlJk9jZzOiAxbBTLv29-34" style="edgeStyle=orthogonalEdgeStyle;rounded=0;orthogonalLoop=1;jettySize=auto;html=1;entryX=0.5;entryY=0;entryDx=0;entryDy=0;entryPerimeter=0;fontFamily=Helvetica;fontSize=12;fontColor=#147EBA;fontStyle=0;" parent="_IlJk9jZzOiAxbBTLv29-1" source="_IlJk9jZzOiAxbBTLv29-22" target="_IlJk9jZzOiAxbBTLv29-32" edge="1">
          <mxGeometry relative="1" as="geometry" />
        </mxCell>
        <mxCell id="_IlJk9jZzOiAxbBTLv29-40" style="edgeStyle=orthogonalEdgeStyle;rounded=0;orthogonalLoop=1;jettySize=auto;html=1;fontFamily=Helvetica;fontSize=12;fontColor=#147EBA;fontStyle=0;" parent="_IlJk9jZzOiAxbBTLv29-1" source="_IlJk9jZzOiAxbBTLv29-39" target="_IlJk9jZzOiAxbBTLv29-26" edge="1">
          <mxGeometry relative="1" as="geometry" />
        </mxCell>
        <mxCell id="rBBs6G4yIKukUtZXNJE--5" value="" style="sketch=0;points=[[0,0,0],[0.25,0,0],[0.5,0,0],[0.75,0,0],[1,0,0],[0,1,0],[0.25,1,0],[0.5,1,0],[0.75,1,0],[1,1,0],[0,0.25,0],[0,0.5,0],[0,0.75,0],[1,0.25,0],[1,0.5,0],[1,0.75,0]];outlineConnect=0;fontColor=#232F3E;fillColor=#E7157B;strokeColor=#ffffff;dashed=0;verticalLabelPosition=bottom;verticalAlign=top;align=center;html=1;fontSize=12;fontStyle=0;aspect=fixed;shape=mxgraph.aws4.resourceIcon;resIcon=mxgraph.aws4.sns;" vertex="1" parent="_IlJk9jZzOiAxbBTLv29-1">
          <mxGeometry x="890" y="575" width="78" height="78" as="geometry" />
        </mxCell>
        <mxCell id="rBBs6G4yIKukUtZXNJE--6" style="edgeStyle=orthogonalEdgeStyle;rounded=0;orthogonalLoop=1;jettySize=auto;html=1;entryX=0;entryY=0.5;entryDx=0;entryDy=0;entryPerimeter=0;" edge="1" parent="_IlJk9jZzOiAxbBTLv29-1" source="_IlJk9jZzOiAxbBTLv29-32" target="rBBs6G4yIKukUtZXNJE--5">
          <mxGeometry relative="1" as="geometry" />
        </mxCell>
      </root>
    </mxGraphModel>
  </diagram>
</mxfile>
